<?xml version="1.0" encoding="UTF-8" standalone="no"?>
<svg xmlns="http://www.w3.org/2000/svg" width="120" height="120" viewBox="0 0 120 120">
  <!-- Background Shield -->
  <path d="M60 10 L10 30 L10 70 Q10 95 60 110 Q110 95 110 70 L110 30 Z" fill="#800000"/>
  
  <!-- Golden Border -->
  <path d="M60 10 L10 30 L10 70 Q10 95 60 110 Q110 95 110 70 L110 30 Z" fill="none" stroke="#FFD700" stroke-width="3"/>
  
  <!-- Text -->
  <text x="60" y="55" font-family="Arial, sans-serif" font-size="18" font-weight="bold" text-anchor="middle" fill="#FFD700">MMCL</text>
  <text x="60" y="75" font-family="Arial, sans-serif" font-size="10" text-anchor="middle" fill="#FFD700">EST. 1957</text>
  
  <!-- Laurel Wreath Elements -->
  <path d="M40,40 C30,55 35,75 40,85" fill="none" stroke="#FFD700" stroke-width="2"/>
  <path d="M80,40 C90,55 85,75 80,85" fill="none" stroke="#FFD700" stroke-width="2"/>
  
  <!-- Small decorative elements -->
  <circle cx="40" cy="45" r="2" fill="#FFD700"/>
  <circle cx="38" cy="55" r="2" fill="#FFD700"/>
  <circle cx="38" cy="65" r="2" fill="#FFD700"/>
  <circle cx="40" cy="75" r="2" fill="#FFD700"/>
  
  <circle cx="80" cy="45" r="2" fill="#FFD700"/>
  <circle cx="82" cy="55" r="2" fill="#FFD700"/>
  <circle cx="82" cy="65" r="2" fill="#FFD700"/>
  <circle cx="80" cy="75" r="2" fill="#FFD700"/>
</svg>